<?xml version="1.0" encoding="UTF-8"?>
<svg width="20px" height="20px" viewBox="0 0 20 20" version="1.1" xmlns="http://www.w3.org/2000/svg" xmlns:xlink="http://www.w3.org/1999/xlink">
    <!-- Generator: Sketch 60.1 (88133) - https://sketch.com -->
    <title>菜单收</title>
    <desc>Created with Sketch.</desc>
    <g id="菜单收" stroke="none" stroke-width="1" fill="none" fill-rule="evenodd">
        <g id="菜单_收" transform="translate(-1.000000, 2.000000)" fill="#909399" fill-rule="nonzero">
            <path d="M18.8946013,2.10635696 L2.08141536,2.10635696 C1.61702373,2.10635696 1.24075606,1.73008929 1.24075606,1.26569766 C1.24075606,0.801306036 1.61702373,0.425038364 2.08141536,0.425038364 L18.8946013,0.425038364 C19.3589929,0.425038364 19.7352606,0.801306036 19.7352606,1.26569766 C19.7352606,1.73008929 19.3587528,2.10635696 18.8946013,2.10635696 Z M18.8946013,16.3978051 L2.08141536,16.3978051 C1.61702373,16.3978051 1.24075606,16.0215374 1.24075606,15.5571458 C1.24075606,15.0927542 1.61702373,14.7164865 2.08141536,14.7164865 L18.8946013,14.7164865 C19.3589929,14.7164865 19.7352606,15.0927542 19.7352606,15.5571458 C19.7352606,16.0212973 19.3587528,16.3978051 18.8946013,16.3978051 Z M11.8946013,11.633829 L1.80644961,11.633829 C1.34205798,11.633829 0.965790309,11.2575613 0.965790309,10.7931697 C0.965790309,10.3287781 1.34205798,9.95251039 1.80644961,9.95251039 L11.8946013,9.95251039 C12.3589929,9.95251039 12.7352606,10.3287781 12.7352606,10.7931697 C12.7352606,11.2575613 12.3587528,11.633829 11.8946013,11.633829 Z M11.8946013,6.87009297 L1.80644961,6.87009297 C1.34205798,6.87009297 0.965790309,6.4938253 0.965790309,6.02943367 C0.965790309,5.56504205 1.34205798,5.18877438 1.80644961,5.18877438 L11.8946013,5.18877438 C12.3589929,5.18877438 12.7352606,5.56504205 12.7352606,6.02943367 C12.7352606,6.4938253 12.3587528,6.87009297 11.8946013,6.87009297 Z M18.9986301,5.75377618 C19.2954181,5.58040971 19.6683241,5.79339594 19.6700049,6.13700733 L19.6808103,8.32401814 L19.6916214,10.511029 C19.6932966,10.8546403 19.3223115,11.0712284 19.0240828,10.9009835 L15.225148,8.73270198 C14.9266791,8.56245707 14.924518,8.13288281 15.2213061,7.95951634 L18.9986301,5.75377618 L18.9986301,5.75377618 Z" id="形状"></path>
        </g>
    </g>
</svg>
