<?xml version="1.0" encoding="UTF-8"?>
<svg width="20px" height="20px" viewBox="0 0 20 20" version="1.1" xmlns="http://www.w3.org/2000/svg" xmlns:xlink="http://www.w3.org/1999/xlink">
    <!-- Generator: Sketch 60.1 (88133) - https://sketch.com -->
    <title>菜单展开</title>
    <desc>Created with Sketch.</desc>
    <g id="菜单展开" stroke="none" stroke-width="1" fill="none" fill-rule="evenodd">
        <g id="菜单_收" transform="translate(0.000000, 2.000000)" fill="#000000" fill-rule="nonzero">
            <path d="M17.8946013,2.10635696 L1.08141536,2.10635696 C0.61702373,2.10635696 0.240756059,1.73008929 0.240756059,1.26569766 C0.240756059,0.801306036 0.61702373,0.425038364 1.08141536,0.425038364 L17.8946013,0.425038364 C18.3589929,0.425038364 18.7352606,0.801306036 18.7352606,1.26569766 C18.7352606,1.73008929 18.3587528,2.10635696 17.8946013,2.10635696 Z M17.8946013,16.3978051 L1.08141536,16.3978051 C0.61702373,16.3978051 0.240756059,16.0215374 0.240756059,15.5571458 C0.240756059,15.0927542 0.61702373,14.7164865 1.08141536,14.7164865 L17.8946013,14.7164865 C18.3589929,14.7164865 18.7352606,15.0927542 18.7352606,15.5571458 C18.7352606,16.0212973 18.3587528,16.3978051 17.8946013,16.3978051 Z M17.928811,11.633829 L7.8406593,11.633829 C7.37626767,11.633829 7,11.2575613 7,10.7931697 C7,10.3287781 7.37626767,9.95251039 7.8406593,9.95251039 L17.928811,9.95251039 C18.3932026,9.95251039 18.7694703,10.3287781 18.7694703,10.7931697 C18.7694703,11.2575613 18.3929625,11.633829 17.928811,11.633829 Z M17.928811,6.87009297 L7.8406593,6.87009297 C7.37626767,6.87009297 7,6.4938253 7,6.02943367 C7,5.56504205 7.37626767,5.18877438 7.8406593,5.18877438 L17.928811,5.18877438 C18.3932026,5.18877438 18.7694703,5.56504205 18.7694703,6.02943367 C18.7694703,6.4938253 18.3929625,6.87009297 17.928811,6.87009297 Z M1.69299133,5.75377618 C1.3962033,5.58040971 1.02329731,5.79339594 1.02161647,6.13700733 L1.01081108,8.32401814 L1,10.511029 C0.998324853,10.8546403 1.36930989,11.0712284 1.66753864,10.9009835 L5.46647343,8.73270198 C5.7649423,8.56245707 5.76710338,8.13288281 5.47031535,7.95951634 L1.69299133,5.75377618 L1.69299133,5.75377618 Z" id="形状"></path>
        </g>
    </g>
</svg>
